Sling Blade 1996  BluRay 1080p DTS x264-LoNeWoLf

Encoded  by Tequila-Bob a.k.a. bobnjeff a.k.a.LoNeWoLf

Source - NTSC BluRay Disc.

 
http://www.imdb.com/title/tt0117666/

Sling Blade (1996) 
  135 min  -  Drama   -   27 November 1996 (USA) 

Genres:Drama 

Rated R for strong language, including descriptions of violent and sexual behavior. 

8.0/10 X  Users: 8.0/10 (42,105 votes) 271 reviews | Critics: 93 reviews 
Karl Childers, a simple man hospitalized since his childhood murder of his mother and her lover, is released to start a new life in a small town. 


Director: Billy Bob Thornton
Writers: Billy Bob Thornton (play), Billy Bob Thornton (screenplay)
Stars:Billy Bob Thornton, Dwight Yoakam and J.T. Walsh

Format : Matroska 
File size : 8.19 GiB 
Duration : 2h 14mn 
Overall bit rate : 8 704 Kbps 
Encoded date : UTC 2010-11-17 18:29:37 
Writing application : mkvmerge v4.4.0 ('Die Wiederkehr') built on Oct 31 2010 21:52:48 
Writing library : libebml v1.0.0 + libmatroska v1.0.0 

Video 
ID : 1 
Format : AVC 
Format/Info : Advanced Video Codec 
Format profile : High@L5.0 
Format settings, CABAC : Yes 
Format settings, ReFrames : 9 frames 
Muxing mode : Container profile=Unknown@5.0 
Codec ID : V_MPEG4/ISO/AVC 
Duration : 2h 14mn 
Bit rate : 6 942 Kbps 
Width : 1 920 pixels 
Height : 1 040 pixels 
Display aspect ratio : 16:9 
Frame rate : 23.976 fps 
Color space : YUV 
Chroma subsampling : 4:2:0 
Bit depth : 8 bits 
Scan type : Progressive 
Bits/(Pixel*Frame) : 0.145 
Stream size : 6.60 GiB (81%) 
Writing library : x264 core 98 r1649 c54c47d 
Encoding settings : cabac=1 / ref=9 / deblock=1:2:-1 / analyse=0x3:0x133 / me=hex / subme=9 / psy=1 / psy_rd=1.00:0.15 / mixed_ref=1 / me_range=16 / chroma_me=0 / trellis=1 / 8x8dct=1 / cqm=0 / deadzone=21,11 / fast_pskip=1 / chroma_qp_offset=-3 / threads=6 / sliced_threads=0 / nr=0 / decimate=1 / interlaced=0 / constrained_intra=0 / bframes=5 / b_pyramid=2 / b_adapt=1 / b_bias=0 / direct=3 / weightb=1 / weightp=2 / keyint=250 / keyint_min=25 / scenecut=40 / intra_refresh=0 / rc_lookahead=60 / rc=2pass / mbtree=1 / bitrate=6942 / ratetol=1.0 / qcomp=0.60 / qpmin=10 / qpmax=51 / qpstep=4 / cplxblur=20.0 / qblur=0.5 / ip_ratio=1.40 / aq=1:1.50 
Language : English 

Audio 
ID : 2 
Format : DTS 
Format/Info : Digital Theater Systems 
Codec ID : A_DTS 
Duration : 2h 14mn 
Bit rate mode : Constant 
Bit rate : 1 510 Kbps 
Channel(s) : 6 channels 
Channel positions : Front: L C R, Side: L R, LFE 
Sampling rate : 48.0 KHz 
Bit depth : 24 bits 
Video delay : 10ms 
Stream size : 1.42 GiB (17%) 
Title : 3/2+1 
Language : English 

Text 
Language : English   
Language : English 
Language : Spanish  
Language : Chinese 
Language : Arabic 
Language : German 
Language : Thai 
Language : Indonesian 
Language : Malay 
Language : Korean 
Language : Bulgarian  
Language : Turkish 
Language : Spanish  
Language : German  
Language : English 
Language : Spanish 
Language : Chinese 
Language : Arabic 
Language : German  
Language : Thai 
Language : Korean  
Language : Bulgarian 
Language : Turkish 

Menu Chapters 24

See the full size 1980x1040 PNG files at the link below
 
http://s1015.photobucket.com/albums/af279/tequila-bob/SlingBlade/